<?xml version="1.0" standalone="no"?>
<!DOCTYPE svg PUBLIC "-//W3C//DTD SVG 20010904//EN"
 "http://www.w3.org/TR/2001/REC-SVG-20010904/DTD/svg10.dtd">
<svg version="1.0" xmlns="http://www.w3.org/2000/svg"
 width="400.000000pt" height="400.000000pt" viewBox="0 0 400.000000 400.000000"
 preserveAspectRatio="xMidYMid meet">

<g transform="translate(0.000000,400.000000) scale(0.100000,-0.100000)"
fill="#000000" stroke="none">
<path d="M830 3440 l0 -70 63 -1 c83 -1 135 -18 161 -52 21 -28 21 -32 21
-756 0 -687 -1 -728 -18 -755 -26 -39 -74 -56 -157 -56 l-70 0 0 -70 0 -70
330 0 330 0 0 70 0 70 -33 0 c-59 0 -133 28 -153 58 -18 26 -19 63 -21 727
l-2 700 49 -140 c26 -77 150 -435 273 -795 124 -360 229 -663 232 -672 6 -15
21 -18 99 -18 l91 1 87 267 c48 147 167 511 265 810 l178 542 3 -682 c2 -469
-1 -695 -8 -720 -13 -46 -49 -67 -126 -75 l-54 -6 0 -68 0 -69 425 0 425 0 0
70 0 70 -70 0 c-83 0 -131 17 -157 56 -17 27 -18 68 -18 755 0 723 0 728 21
756 27 36 73 52 157 52 l67 1 0 70 0 70 -378 0 -378 0 -209 -635 c-115 -349
-211 -635 -214 -635 -4 0 -77 208 -165 463 -87 254 -186 540 -219 635 l-59
172 -384 0 -384 0 0 -70z"/>
<path d="M56 1164 c-23 -22 -20 -51 7 -69 21 -13 235 -15 1951 -13 1895 3
1928 3 1942 22 18 26 18 32 -6 56 -20 20 -33 20 -1949 20 -1741 0 -1931 -2
-1945 -16z"/>
<path d="M760 713 c0 -5 10 -13 23 -18 21 -10 22 -15 22 -130 0 -115 -1 -120
-22 -130 -38 -17 -26 -25 37 -25 58 0 80 12 40 23 -19 5 -20 13 -20 119 1 128
0 129 60 -44 24 -67 39 -98 50 -98 11 0 29 40 62 133 l47 132 0 -117 c1 -108
0 -117 -19 -123 -42 -13 -17 -25 55 -25 71 0 99 11 55 23 -19 5 -20 14 -20
132 0 118 1 127 20 132 41 11 18 23 -44 23 l-63 0 -32 -90 c-17 -49 -31 -94
-31 -100 0 -32 -19 1 -50 88 l-35 97 -68 3 c-37 2 -67 -1 -67 -5z"/>
<path d="M1401 584 c-31 -79 -61 -140 -72 -147 -32 -20 -22 -27 41 -27 33 0
60 4 60 10 0 6 -7 10 -15 10 -22 0 -28 22 -16 53 10 25 15 27 66 27 51 0 56
-2 66 -27 12 -31 6 -53 -16 -53 -8 0 -15 -4 -15 -10 0 -6 32 -10 75 -10 76 0
89 6 58 26 -10 6 -40 72 -68 148 -50 135 -50 136 -81 136 -31 0 -32 -2 -83
-136z m85 34 c9 -29 19 -59 22 -65 3 -9 -9 -13 -43 -13 -33 0 -45 4 -42 13 3
6 14 36 23 65 10 28 19 52 20 52 1 0 10 -24 20 -52z"/>
<path d="M1790 710 c0 -5 7 -10 15 -10 25 0 35 -36 35 -135 0 -99 -10 -135
-35 -135 -8 0 -15 -4 -15 -10 0 -6 33 -10 80 -10 75 0 105 11 60 23 -17 4 -20
14 -20 61 0 70 16 67 61 -11 31 -54 58 -73 105 -73 27 0 32 15 9 27 -8 5 -30
33 -49 62 l-34 54 29 25 c49 40 37 110 -22 131 -40 14 -219 15 -219 1z m188
-38 c28 -36 0 -102 -44 -102 -23 0 -24 3 -24 65 l0 65 28 -6 c15 -4 33 -13 40
-22z"/>
<path d="M2240 712 c0 -4 10 -12 23 -17 20 -9 22 -17 25 -115 3 -125 -1 -150
-28 -150 -11 0 -20 -4 -20 -10 0 -6 35 -10 85 -10 47 0 85 4 85 9 0 5 -10 11
-22 13 -20 3 -23 10 -26 61 l-3 57 56 0 c30 0 55 5 55 10 0 6 -25 10 -55 10
l-55 0 0 61 0 60 48 -3 c40 -3 47 -6 50 -25 2 -15 10 -23 24 -23 18 0 20 4 14
31 -3 17 -6 35 -6 40 0 5 -56 9 -125 9 -69 0 -125 -3 -125 -8z"/>
<path d="M2650 712 c0 -4 10 -12 23 -17 20 -9 22 -17 25 -117 3 -109 -5 -148
-33 -148 -8 0 -15 -4 -15 -10 0 -6 33 -10 80 -10 75 0 105 11 60 23 -19 5 -20
14 -20 132 0 118 1 127 20 132 45 12 15 23 -60 23 -44 0 -80 -3 -80 -8z"/>
<path d="M2950 710 c0 -5 7 -10 15 -10 27 0 36 -38 33 -147 -3 -101 -4 -109
-25 -118 -13 -5 -23 -13 -23 -17 0 -5 61 -8 135 -8 l135 0 0 51 c0 36 -4 49
-12 47 -7 -3 -15 -13 -17 -24 -6 -34 -22 -44 -72 -44 l-49 0 0 126 c0 117 1
126 20 131 45 12 15 23 -60 23 -47 0 -80 -4 -80 -10z"/>
</g>
</svg>
